{"glyphs":{"0":{"ha":788,"x_min":-36,"x_max":829,"o":"m 679 968 q 697 967 686 968 q 736 959 708 967 q 784 938 764 951 q 816 897 804 925 q 818 829 828 868 l 658 136 q 624 65 649 94 q 571 22 599 35 q 516 3 543 10 q 471 -3 489 -3 l 453 -3 l 107 -3 q 45 5 72 -3 q 3 25 18 13 q -21 52 -11 38 q -33 81 -31 67 q -35 108 -35 96 q -35 128 -36 121 l -33 136 l 128 829 q 130 837 128 832 q 139 856 132 842 q 155 884 146 871 q 181 913 164 897 q 219 941 199 929 q 269 960 239 953 q 333 968 299 968 l 679 968 m 414 204 l 543 760 l 371 760 l 371 758 l 285 758 l 361 718 l 251 246 l 165 246 l 242 206 l 242 204 l 414 204 z "},"1":{"ha":331,"x_min":-53,"x_max":385,"o":"m 339 971 q 371 956 358 971 q 379 921 383 940 l 354 806 l 303 563 l 189 35 q 174 10 186 19 q 149 1 163 1 l -8 1 q -40 17 -28 1 q -49 51 -53 32 l 74 617 l 78 639 l 104 761 l 143 938 q 157 962 146 953 q 183 971 168 971 l 339 971 z "},"2":{"ha":754,"x_min":-58,"x_max":794,"o":"m 653 971 q 792 874 785 971 q 788 831 793 850 l 776 781 l 746 638 l 718 517 q 685 445 710 475 q 634 403 661 415 q 581 384 607 390 q 538 378 556 378 l 521 378 l 271 378 l 272 379 l 186 379 l 263 339 l 233 207 l 607 207 q 634 194 624 207 q 640 165 644 182 l 608 25 q 597 6 606 14 q 575 -1 588 -1 l -19 -1 q -47 12 -36 -1 q -54 42 -57 25 l 38 447 q 44 465 39 454 q 68 505 49 476 q 114 555 88 533 q 190 594 140 576 q 301 611 240 611 l 488 611 l 514 718 l 590 758 l 524 761 l 143 761 q 121 772 129 761 q 115 796 113 783 l 153 950 q 179 971 157 971 l 653 971 z "},"3":{"ha":747,"x_min":-64,"x_max":788,"o":"m 643 972 q 725 958 693 972 q 769 924 757 943 q 783 882 781 906 q 785 849 786 858 q 782 832 783 839 l 774 797 l 765 764 l 765 761 l 744 672 q 713 614 738 638 l 583 485 l 643 425 q 669 338 681 389 l 624 139 q 619 123 622 132 q 602 90 617 114 q 567 47 588 65 q 508 14 547 29 q 421 -1 469 -1 l -24 -1 q -53 13 -42 -1 q -60 43 -64 26 l -25 179 q 10 206 -19 206 l 385 206 l 424 381 l 307 381 q 274 397 286 381 q 265 433 261 413 l 297 568 q 313 592 301 583 q 339 601 324 601 l 474 601 l 510 764 l 131 763 q 103 775 114 761 q 96 807 92 789 l 129 944 q 165 972 136 972 l 643 972 z "},"4":{"ha":811,"x_min":18,"x_max":865,"o":"m 813 971 q 850 953 836 971 q 860 913 864 935 l 836 806 l 785 563 l 672 39 q 655 12 668 22 q 625 1 642 1 l 482 1 q 444 19 458 1 q 435 60 431 38 l 504 379 l 65 379 q 40 386 51 379 q 24 406 29 393 q 22 432 19 418 l 132 933 q 149 960 136 950 q 179 971 163 971 l 322 972 q 359 954 344 972 q 369 914 374 936 l 311 644 l 225 644 l 301 604 l 301 601 l 551 601 l 586 761 l 622 933 q 632 953 625 944 q 649 966 639 961 q 669 971 658 971 l 813 971 z "},"5":{"ha":750,"x_min":-32,"x_max":807,"o":"m 347 761 l 340 761 l 324 653 l 238 653 l 308 608 l 314 608 l 567 608 q 651 594 618 608 q 694 558 683 579 q 709 515 706 536 q 710 479 713 494 l 707 465 l 625 138 q 623 122 625 132 q 609 89 621 113 q 578 48 597 65 q 519 15 558 31 q 429 0 481 0 l 7 0 q -22 15 -11 0 q -26 46 -32 29 l 14 182 q 47 207 22 207 l 390 207 l 429 378 l 179 378 q 163 378 179 381 q 122 384 146 376 q 77 403 99 392 q 45 444 56 414 q 44 518 35 475 l 71 638 l 146 971 l 772 971 q 797 959 788 971 q 803 933 806 947 l 769 786 q 739 763 764 763 l 347 763 l 347 761 z "},"6":{"ha":785,"x_min":-40,"x_max":819,"o":"m 344 763 l 311 647 l 226 647 l 303 607 l 544 607 q 552 607 547 607 q 572 606 557 607 q 601 601 588 604 q 634 592 614 597 q 668 576 654 586 q 699 553 682 567 q 721 519 715 539 q 731 475 726 500 q 726 417 736 450 l 675 139 q 673 124 675 133 q 658 91 671 115 q 627 49 646 67 q 570 15 608 31 q 481 0 532 0 l 101 0 q 84 1 94 0 q 47 8 74 1 q 2 28 21 15 q -28 69 -17 40 q -31 139 -39 99 l 63 583 l 129 897 q 162 950 136 929 q 221 971 188 971 l 774 971 q 798 964 788 971 q 813 944 808 957 q 815 919 818 932 l 789 796 q 784 783 788 789 q 775 772 781 776 q 763 765 769 768 q 747 763 756 763 l 344 763 m 265 381 l 238 249 l 151 249 l 229 208 l 450 208 l 488 381 l 265 381 z "},"7":{"ha":986,"x_min":63,"x_max":919,"o":"m 113 0 q 75 22 88 0 q 76 67 63 44 l 608 726 q 610 751 617 739 q 589 763 603 763 l 208 763 q 179 776 190 763 q 171 806 168 789 l 197 940 q 201 953 199 947 q 209 963 204 958 q 220 969 214 967 q 233 971 226 971 l 854 971 q 900 951 882 971 q 917 906 918 932 l 907 760 l 326 21 q 290 0 314 0 l 113 0 z "},"8":{"ha":792,"x_min":-35,"x_max":821,"o":"m 821 865 l 769 633 q 740 589 763 606 l 622 504 l 706 419 q 725 351 733 390 l 683 161 q 647 78 674 113 q 589 29 619 43 q 528 8 558 15 q 481 1 499 1 l 461 3 l 121 3 q 55 11 83 3 q 10 33 26 19 q -16 65 -6 47 q -29 99 -26 82 q -33 129 -32 115 q -32 151 -33 143 l -31 161 l 13 363 q 42 407 19 390 l 181 504 l 111 576 q 92 644 83 606 l 140 865 q 143 873 142 868 q 153 893 144 878 q 170 922 161 908 q 197 951 179 935 q 233 980 214 968 q 281 1000 253 992 q 342 1008 310 1008 l 682 1008 q 697 1008 688 1008 q 731 1000 707 1007 q 772 980 754 993 q 806 937 790 967 q 821 865 821 907 m 424 217 l 463 396 l 208 396 l 285 354 l 254 217 l 424 217 m 510 611 l 550 792 l 294 792 l 371 750 l 340 611 l 510 611 z "},"9":{"ha":789,"x_min":-32,"x_max":829,"o":"m 686 971 q 704 971 693 971 q 742 964 715 971 q 787 944 768 957 q 817 901 806 931 q 819 832 828 872 l 725 389 l 660 75 q 642 36 656 53 q 609 10 628 19 q 568 0 590 0 l 14 0 q -19 16 -7 0 q -28 51 -32 32 l -1 175 q 14 199 3 190 q 40 208 25 208 l 449 208 l 467 293 l 488 400 l 240 400 q 233 400 238 400 q 213 401 228 400 q 184 406 197 403 q 151 415 171 408 q 117 430 131 421 q 87 453 103 439 q 65 487 71 468 q 53 531 58 506 q 58 589 49 557 l 113 832 q 116 847 114 838 q 130 881 118 857 q 160 923 142 904 q 218 956 179 942 q 307 971 257 971 l 686 971 m 557 724 l 565 764 l 260 764 l 335 722 l 307 592 l 528 592 l 557 724 z "},"\u0000":{"ha":0,"x_min":0,"x_max":0,"o":""},"\n":{"ha":0,"x_min":0,"x_max":0,"o":""},"\r":{"ha":0,"x_min":0,"x_max":0,"o":""}," ":{"ha":489,"x_min":0,"x_max":0,"o":""},"!":{"ha":325,"x_min":-28,"x_max":361,"o":"m 314 874 q 348 858 335 874 q 357 821 361 842 l 250 342 q 235 318 247 328 q 207 308 222 308 l 56 308 q 22 324 35 308 q 13 361 8 340 l 119 840 q 128 858 122 850 q 142 869 133 865 q 163 874 151 874 l 314 874 m 179 243 q 212 226 199 243 q 221 190 225 210 l 213 153 q 198 128 210 138 q 171 118 186 118 l 18 118 q -6 126 4 118 q -22 145 -17 133 q -24 171 -26 157 l -17 208 q -1 233 -12 224 q 26 243 11 243 l 179 243 z "},"\"":{"ha":417,"x_min":67,"x_max":350,"o":"m 318 939 q 341 926 332 939 q 346 896 350 913 l 329 828 q 328 821 329 825 l 304 729 q 288 717 301 717 l 272 717 q 263 720 267 717 q 257 728 258 724 q 257 738 256 733 l 272 803 l 236 803 q 214 816 222 803 q 210 844 206 829 l 224 914 q 251 939 229 939 l 318 939 m 179 939 q 203 926 194 939 q 207 896 211 913 l 190 828 q 189 821 190 825 l 165 729 q 149 717 163 717 l 133 717 q 126 719 129 717 q 120 724 122 721 q 117 730 118 726 q 118 738 117 733 l 133 803 l 99 803 q 76 816 85 803 q 71 844 67 829 l 85 914 q 113 939 90 939 l 179 939 z "},"#":{"ha":826,"x_min":-12,"x_max":821,"o":"m 781 708 q 808 694 797 708 q 815 663 819 681 l 790 554 q 777 534 788 542 q 754 526 767 526 l 726 526 l 696 526 l 675 439 l 740 438 q 769 424 758 438 q 776 393 781 410 l 750 285 q 738 264 747 272 q 715 256 728 256 l 688 256 l 632 256 l 610 157 q 592 131 606 142 q 563 121 579 121 l 460 121 q 422 139 436 121 q 414 179 408 157 l 431 256 l 310 257 l 288 157 q 270 131 283 142 q 242 121 257 121 l 138 121 q 100 139 114 121 q 92 179 86 157 l 110 257 l 29 257 q 0 272 11 257 q -7 303 -11 286 l 18 410 q 32 431 22 422 q 56 439 42 439 l 151 439 l 172 526 l 89 526 q 58 542 69 526 q 53 575 47 557 l 83 682 q 121 710 92 710 l 214 708 l 243 835 q 260 860 247 850 q 290 871 274 871 l 393 871 q 431 853 417 871 q 440 813 444 835 l 424 743 l 415 708 l 524 708 l 536 708 l 565 835 q 583 860 569 850 q 613 871 596 871 l 715 871 q 742 863 731 871 q 760 841 754 854 q 761 813 765 828 l 746 743 l 738 708 l 781 708 m 474 439 l 494 526 l 374 526 l 353 439 l 474 439 z "},"$":{"ha":769,"x_min":-49,"x_max":819,"o":"m 779 913 q 808 899 797 913 q 815 867 819 885 l 778 731 l 310 729 l 285 624 l 564 624 q 569 624 565 624 q 587 623 574 624 q 611 619 600 622 q 640 613 622 617 q 668 601 657 608 q 693 584 679 594 q 712 560 707 574 q 720 526 717 546 q 715 483 724 507 q 712 472 714 479 q 710 463 710 464 l 708 457 q 693 401 699 421 l 693 400 q 689 388 692 394 l 685 371 q 678 344 685 369 l 676 339 q 656 264 665 301 l 650 244 q 650 242 650 243 q 650 240 650 242 l 649 236 q 644 221 644 224 l 640 206 q 638 199 639 203 l 638 196 l 636 190 q 636 190 636 190 l 635 188 q 631 175 633 183 q 613 147 628 167 q 579 110 599 126 q 523 82 560 94 q 442 69 486 69 l 363 69 l 346 21 q 318 0 339 0 l 131 0 q 106 13 115 0 q 103 40 97 25 l 113 69 l -14 69 q -38 81 -29 69 q -44 106 -47 92 l -17 228 q 14 251 -11 251 l 393 251 l 433 400 l 194 400 q 176 399 188 399 q 138 406 165 400 q 92 422 111 411 q 61 458 72 433 q 58 519 50 483 l 129 793 q 133 806 131 797 q 150 835 136 814 q 183 871 164 856 q 241 899 203 886 q 326 913 279 913 l 400 913 l 418 964 q 453 989 426 989 l 626 989 q 656 974 644 989 q 660 940 667 958 l 650 913 l 779 913 z "},"%":{"ha":990,"x_min":28,"x_max":963,"o":"m 272 446 q 243 438 260 438 l 121 438 q 85 451 100 438 l 49 488 q 35 535 29 507 l 97 800 q 118 831 101 819 l 186 876 q 214 886 199 886 l 338 886 q 372 871 358 886 l 408 836 q 422 788 429 815 l 361 522 q 340 492 357 503 l 272 446 m 208 556 q 231 572 226 556 l 269 740 q 265 758 271 750 q 247 767 258 767 q 226 750 231 767 l 188 582 q 192 564 186 572 q 208 556 199 556 m 943 501 q 956 454 963 482 l 894 188 q 874 157 890 168 l 806 113 q 778 103 793 103 l 654 103 q 618 118 633 103 l 583 153 q 569 200 563 172 l 631 467 q 651 497 635 486 l 719 543 q 747 551 732 551 l 871 551 q 907 538 892 551 l 943 501 m 803 406 q 799 424 806 417 q 782 432 792 432 q 761 415 764 432 l 722 249 q 726 230 719 238 q 743 222 732 222 q 764 239 760 222 l 803 406 m 718 744 l 603 519 l 404 136 q 376 118 396 118 l 264 118 q 237 133 246 118 q 236 165 228 149 l 472 625 l 483 646 l 540 758 l 590 854 q 618 871 599 871 l 731 871 q 758 856 749 871 q 758 824 767 840 l 718 744 z "},"&":{"ha":925,"x_min":-33,"x_max":858,"o":"m 822 586 q 847 574 838 586 q 854 546 857 561 l 828 444 l 825 433 q 793 408 819 408 l 689 410 l 651 254 l 643 222 l 622 136 q 601 94 615 110 q 577 76 586 79 q 558 72 568 72 l 421 72 l 400 21 q 371 0 393 0 l 222 0 q 197 14 207 0 q 193 43 188 28 l 204 72 l 111 72 q 94 72 110 74 q 54 76 78 69 q 10 93 31 83 q -22 129 -11 103 q -24 192 -32 156 l 24 375 q 64 429 32 410 l 168 494 l 101 554 q 75 644 61 590 l 110 785 q 115 798 111 789 q 135 830 119 807 q 173 870 151 853 q 235 902 194 888 q 325 917 275 917 l 421 917 l 439 965 q 474 989 447 989 l 610 989 q 640 973 629 989 q 644 939 651 957 l 638 917 l 771 917 q 800 903 789 917 q 807 871 811 889 l 774 736 l 363 736 l 325 586 l 557 586 l 576 665 q 608 689 583 689 l 717 689 q 742 677 732 689 q 747 650 751 665 l 732 586 l 822 586 m 476 254 l 507 379 l 272 378 l 240 254 l 476 254 z "},"'":{"ha":185,"x_min":99,"x_max":244,"o":"m 213 939 q 235 926 226 939 q 240 896 244 913 l 224 828 q 222 821 222 825 l 199 729 q 182 717 194 717 l 167 717 q 157 720 161 717 q 151 728 153 724 q 150 738 149 733 l 167 803 l 131 803 q 108 816 117 803 q 103 844 100 829 l 118 914 q 146 939 124 939 l 213 939 z "},"(":{"ha":482,"x_min":-37,"x_max":565,"o":"m 533 989 q 556 978 547 989 q 561 953 564 967 l 531 825 q 503 803 525 803 l 367 803 l 218 183 l 340 183 q 356 178 349 183 q 367 165 364 174 q 368 149 371 157 l 338 22 q 310 0 332 0 l 93 0 q 81 1 93 3 q 48 5 68 -1 q 9 22 28 11 q -24 58 -10 32 q -37 122 -37 85 l 142 865 q 146 879 143 871 q 163 908 149 888 q 196 946 176 929 q 251 976 215 963 q 332 989 286 989 l 533 989 z "},")":{"ha":482,"x_min":-78,"x_max":522,"o":"m 392 989 q 405 988 392 986 q 438 983 418 990 q 476 967 457 976 q 508 931 494 957 q 522 867 522 904 l 343 124 q 339 111 342 119 q 322 81 336 103 q 290 43 308 60 q 235 13 271 26 q 154 0 199 0 l -36 0 q -66 15 -54 0 q -74 47 -78 29 l -47 157 q -34 178 -44 169 q -10 186 -24 186 l 118 186 l 267 804 l 157 804 q 127 819 139 804 q 119 851 115 833 l 146 960 q 159 981 149 972 q 183 989 169 989 l 392 989 z "},"*":{"ha":507,"x_min":69,"x_max":438,"o":"m 421 751 q 433 747 428 751 q 438 735 438 742 l 438 668 q 433 656 438 661 q 421 651 428 651 l 386 651 l 422 615 q 422 588 438 601 l 381 546 q 353 546 367 531 l 267 631 l 181 546 q 153 546 167 531 l 110 588 q 110 615 96 601 l 146 651 l 86 651 q 74 656 79 651 q 69 668 69 661 l 69 735 q 74 747 69 742 q 86 751 79 751 l 146 751 l 110 786 q 110 815 96 801 l 153 857 q 181 857 167 871 l 267 771 l 353 857 q 381 857 367 871 l 422 815 q 422 786 438 801 l 386 751 l 421 751 z "},"+":{"ha":501,"x_min":67,"x_max":435,"o":"m 410 588 q 428 578 421 588 q 432 558 435 569 l 411 476 q 390 458 407 458 l 301 458 l 281 372 q 258 356 276 356 l 174 356 q 156 364 163 356 q 151 383 149 372 l 169 458 l 92 458 q 74 467 81 458 q 69 486 68 476 l 90 569 q 113 586 94 586 l 200 586 l 221 672 q 243 690 226 690 l 329 690 q 347 681 340 690 q 351 661 353 672 l 332 588 l 410 588 z "},",":{"ha":183,"x_min":-46,"x_max":100,"o":"m 67 253 q 90 240 82 253 q 94 211 99 226 l 79 142 q 76 136 78 139 l 53 44 q 38 32 50 32 l 22 32 q 8 38 14 32 q 6 53 3 44 l 21 118 l -14 118 q -37 131 -28 118 q -42 160 -46 143 l -26 228 q 1 253 -21 253 l 67 253 z "},"-":{"ha":515,"x_min":67,"x_max":449,"o":"m 419 589 q 440 579 432 589 q 446 557 449 569 l 426 476 q 400 456 421 456 l 96 456 q 75 466 83 456 q 71 489 67 476 l 90 569 q 115 589 94 589 l 419 589 z "},".":{"ha":181,"x_min":-44,"x_max":100,"o":"m 67 253 q 90 240 82 253 q 94 211 99 226 l 79 142 q 51 118 72 118 l -14 118 q -31 124 -24 118 q -41 139 -37 129 q -42 160 -44 149 l -26 228 q 1 253 -21 253 l 67 253 z "},"/":{"ha":533,"x_min":-51,"x_max":465,"o":"m 413 871 q 444 860 431 871 q 462 833 458 849 q 458 800 465 817 l 438 754 l 336 535 l 158 147 q 113 118 146 118 l 7 118 q -35 141 -21 118 q -39 189 -50 164 l 169 643 l 179 664 l 231 774 l 261 842 q 307 871 275 871 l 413 871 z "},":":{"ha":199,"x_min":-32,"x_max":165,"o":"m 132 538 q 156 524 147 538 q 160 496 164 511 l 144 426 q 117 403 138 403 l 51 403 q 35 408 42 403 q 24 424 28 414 q 24 444 21 433 l 39 513 q 67 538 44 538 l 132 538 m 81 253 q 104 240 96 253 q 108 211 113 226 l 93 142 q 65 118 86 118 l 0 118 q -23 131 -14 118 q -28 160 -32 143 l -12 228 q 15 253 -7 253 l 81 253 z "},";":{"ha":193,"x_min":-40,"x_max":165,"o":"m 133 538 q 156 524 147 538 q 160 496 164 511 l 144 426 q 117 403 138 403 l 51 403 q 28 415 38 403 q 24 444 19 428 l 39 513 q 67 538 44 538 l 133 538 m 72 253 q 90 247 82 253 q 100 231 97 240 q 100 211 103 221 l 85 142 q 82 136 83 139 l 58 44 q 43 32 56 32 l 28 32 q 14 38 19 32 q 11 53 8 44 l 26 118 l -8 118 q -31 131 -22 118 q -36 160 -40 143 l -21 228 q 7 253 -15 253 l 72 253 z "},"<":{"ha":618,"x_min":63,"x_max":560,"o":"m 479 733 q 535 722 511 747 q 544 667 558 697 l 519 615 q 490 589 511 596 l 268 521 l 403 490 q 438 462 428 485 q 435 417 447 439 l 410 374 q 356 350 392 340 l 107 410 q 73 440 82 415 q 79 488 64 465 l 150 583 q 171 599 158 593 l 479 733 z "},"=":{"ha":401,"x_min":1,"x_max":408,"o":"m 339 483 q 359 473 351 483 q 364 450 367 463 l 346 375 q 319 354 340 354 l 31 354 q 10 365 18 354 q 4 388 1 375 l 24 463 q 49 483 28 483 l 339 483 m 379 653 q 401 643 393 653 q 406 621 408 633 l 388 544 q 361 525 382 525 l 71 525 q 51 535 58 525 q 46 557 43 544 l 64 633 q 90 653 69 653 l 379 653 z "},">":{"ha":618,"x_min":58,"x_max":556,"o":"m 511 676 q 547 646 538 671 q 539 599 556 621 l 468 503 q 449 488 460 493 l 139 353 q 83 363 107 339 q 75 419 60 388 l 99 471 q 129 497 108 490 l 351 565 l 215 596 q 181 624 192 601 q 183 669 171 647 l 208 713 q 263 736 226 746 l 511 676 z "},"?":{"ha":719,"x_min":-35,"x_max":751,"o":"m 188 243 q 213 231 203 243 q 219 203 224 218 l 207 144 q 201 131 206 136 q 189 122 196 125 q 175 118 182 118 l 1 118 q -24 131 -14 118 q -31 158 -35 143 l -18 217 q -6 235 -15 228 q 14 243 3 243 l 188 243 m 747 757 q 749 739 751 749 l 692 524 l 689 517 q 688 513 689 514 q 650 447 675 474 q 598 410 625 421 q 546 394 571 400 q 504 390 521 389 l 489 390 l 258 390 l 243 333 q 211 308 236 308 l 40 308 q 15 322 25 308 q 8 350 4 335 l 60 539 q 92 564 67 564 l 461 564 l 499 703 l 144 703 q 119 716 129 703 q 114 744 108 729 l 143 847 q 175 871 150 871 l 585 871 q 591 872 588 871 q 606 872 594 872 q 628 870 617 871 q 653 866 639 869 q 681 858 668 863 q 707 844 694 853 q 728 824 719 835 q 743 795 738 813 q 747 757 749 778 z "},"@":{"ha":1026,"x_min":-47,"x_max":1075,"o":"m 1018 989 q 1058 970 1043 989 q 1069 928 1074 951 l 971 381 q 953 350 968 363 q 919 338 939 338 l 699 338 l 546 250 l 336 250 q 296 269 311 250 q 285 311 281 288 l 344 653 q 362 684 347 672 q 396 696 376 696 l 697 696 q 738 677 722 696 q 749 635 753 658 l 708 411 l 786 411 l 851 814 l 293 814 l 181 175 l 629 175 q 675 153 657 175 q 686 103 693 131 l 675 47 q 654 13 671 26 q 617 0 638 0 l 18 0 q -28 22 -11 0 q -40 72 -46 44 l -22 157 q 3 276 -7 226 q 15 331 14 325 l 139 947 q 156 977 142 965 q 190 989 171 989 l 1018 989 m 565 404 l 590 547 l 468 547 l 442 404 l 565 404 z "},"A":{"ha":839,"x_min":-101,"x_max":754,"o":"m 667 971 q 728 947 703 971 q 753 888 753 922 l 753 61 q 735 17 753 35 q 690 0 717 0 l 528 0 q 483 17 501 0 q 464 61 464 35 l 464 174 l 235 174 l 172 36 q 114 0 156 0 l -29 0 q -83 28 -64 0 q -85 88 -101 57 l 197 638 l 329 896 l 197 971 l 667 971 m 471 363 l 481 703 q 472 713 481 711 q 458 707 463 715 l 382 528 l 311 363 l 471 363 z "},"B":{"ha":832,"x_min":19,"x_max":874,"o":"m 729 971 q 746 969 735 971 q 784 960 757 968 q 830 940 811 953 q 860 899 849 928 q 864 833 872 871 l 808 582 q 776 522 800 546 q 732 490 751 497 l 713 485 q 764 457 747 485 q 779 401 781 429 l 779 375 l 729 153 q 692 70 718 104 q 635 23 665 36 q 578 3 606 10 q 531 -1 550 -3 l 513 0 l 65 0 q 33 16 46 0 q 24 51 19 32 l 143 586 l 185 771 l 211 892 l 78 971 l 729 971 m 494 303 q 483 356 501 332 q 433 381 464 381 l 349 381 l 318 247 l 308 207 l 422 207 q 451 213 438 207 q 473 231 464 219 q 485 257 482 242 l 494 303 m 585 701 q 575 743 590 725 q 536 761 560 761 l 438 761 l 410 640 l 404 640 l 408 638 l 531 638 q 561 648 547 638 q 579 675 575 658 l 585 701 z "},"C":{"ha":828,"x_min":18,"x_max":882,"o":"m 739 971 q 788 966 765 971 q 826 953 811 961 q 851 934 840 944 q 867 913 861 924 q 876 890 872 901 q 880 867 879 878 q 881 849 881 857 q 880 836 881 842 q 879 832 879 831 l 838 656 q 825 635 835 643 q 803 628 815 628 l 617 628 q 589 641 600 628 q 582 671 578 654 l 597 742 l 597 744 l 429 744 l 421 700 l 303 204 l 474 204 l 500 317 q 503 324 501 319 q 507 331 504 328 q 513 336 510 333 q 519 340 515 339 q 526 342 522 342 q 535 343 531 343 l 721 343 q 749 330 739 343 q 756 300 760 317 l 718 135 q 715 120 718 129 q 698 88 713 111 q 663 46 683 64 q 603 13 643 28 q 514 -1 564 -1 l 168 -1 q 150 -1 161 -1 q 110 8 139 0 q 63 28 82 15 q 31 69 43 42 q 28 135 18 97 l 121 543 l 140 628 l 151 676 l 163 724 l 203 899 l 82 971 l 219 971 l 369 971 l 393 971 l 739 971 z "},"D":{"ha":847,"x_min":25,"x_max":889,"o":"m 751 971 q 829 956 799 971 q 871 924 860 942 q 885 882 882 906 q 886 848 888 858 q 883 831 885 838 l 882 829 l 733 133 q 733 132 733 133 q 729 114 732 125 q 714 80 726 103 q 683 40 701 57 q 626 8 664 22 q 540 -6 589 -6 l 79 -6 q 40 14 56 -6 q 31 57 25 33 l 210 892 l 76 971 l 328 971 l 751 971 m 607 697 q 597 742 611 722 q 557 761 582 761 l 424 761 l 304 203 l 431 203 q 485 222 461 203 q 514 272 508 242 l 607 697 z "},"E":{"ha":838,"x_min":44,"x_max":919,"o":"m 879 971 q 908 957 896 971 q 915 925 919 943 l 888 792 q 874 769 885 778 q 850 761 864 761 l 443 761 l 421 761 l 413 722 l 413 721 l 394 638 l 700 638 q 729 624 718 638 q 736 593 740 610 l 701 408 q 688 386 699 394 q 665 378 678 378 l 358 378 l 336 378 l 328 338 l 299 206 l 717 206 q 746 192 735 206 q 753 161 757 178 l 725 29 q 712 8 722 17 q 689 0 701 0 l 238 0 q 99 66 153 0 q 63 215 44 132 l 150 625 l 188 800 q 192 817 189 808 l 207 892 l 75 971 l 325 971 l 385 971 l 385 969 q 396 971 392 971 l 879 971 z "},"F":{"ha":749,"x_min":-15,"x_max":847,"o":"m 799 971 q 833 954 819 971 q 842 917 847 938 l 817 797 q 801 771 814 781 q 774 761 789 761 l 400 761 l 381 761 l 354 638 l 628 638 q 662 621 649 638 q 671 583 675 604 l 635 414 q 626 396 632 404 q 610 383 619 388 q 592 379 601 379 l 321 379 l 300 379 l 271 247 l 225 26 q 213 8 222 15 q 192 0 203 0 l 22 0 q -4 13 6 0 q -11 40 -14 25 l 124 672 l 175 919 l 90 971 l 340 971 l 799 971 z "},"G":{"ha":858,"x_min":33,"x_max":897,"o":"m 846 588 l 603 589 l 633 742 l 526 742 l 421 742 l 413 701 l 388 588 l 369 511 l 313 250 q 314 244 313 246 l 311 244 l 303 203 l 354 203 q 356 203 356 203 l 517 203 l 539 310 l 482 310 q 450 326 463 310 q 442 364 438 343 l 468 483 q 483 508 472 499 q 508 517 494 517 l 776 517 q 810 501 797 517 q 817 464 822 485 l 744 133 q 736 119 742 128 q 709 86 731 110 q 662 44 688 63 q 592 12 636 26 q 500 -3 549 -3 l 176 -3 q 158 -2 169 -3 q 121 5 147 -1 q 76 24 94 11 q 46 65 57 36 q 43 133 35 94 l 149 625 l 150 629 l 194 833 q 194 835 194 835 l 207 893 l 78 971 l 357 971 l 386 971 l 711 971 q 775 963 746 971 q 823 944 804 956 q 856 917 842 932 q 877 887 869 901 q 890 860 885 872 q 894 840 894 849 l 896 833 l 846 588 z "},"H":{"ha":832,"x_min":22,"x_max":886,"o":"m 847 972 q 875 959 864 972 q 882 929 886 946 l 694 32 q 688 17 693 24 q 676 6 683 10 q 661 3 669 3 l 499 3 q 472 16 482 3 q 464 47 461 29 l 525 336 q 518 367 529 354 q 490 381 507 381 l 364 381 l 329 381 l 322 347 l 321 338 l 317 319 l 257 32 q 249 17 254 24 q 238 6 244 10 q 222 3 231 3 l 61 3 q 33 16 44 3 q 26 47 22 29 l 135 565 l 140 596 l 150 640 l 203 896 l 74 972 l 408 972 q 437 959 426 972 q 443 928 447 946 l 400 725 q 406 646 389 664 l 415 640 l 422 640 q 425 640 424 640 l 560 640 q 582 649 572 640 q 594 669 592 657 l 651 943 q 664 964 654 956 q 686 972 674 972 l 847 972 z "},"I":{"ha":389,"x_min":13,"x_max":442,"o":"m 367 972 q 420 947 399 972 q 433 888 442 921 l 417 806 l 364 563 l 256 54 q 242 26 251 39 q 218 7 232 14 q 188 0 204 0 l 89 0 q 35 26 56 0 q 21 85 14 51 l 135 618 l 140 639 l 167 763 l 196 903 l 79 972 l 264 972 q 267 972 267 972 l 367 972 z "},"J":{"ha":779,"x_min":-39,"x_max":815,"o":"m 696 971 q 751 963 728 971 q 785 942 774 954 q 804 912 797 929 q 813 881 811 894 q 814 851 815 867 q 811 831 813 836 q 810 822 810 825 l 667 138 q 636 66 658 96 q 589 24 614 36 q 540 6 564 13 q 500 1 515 0 l 485 1 l 94 1 q 20 15 50 1 q -20 49 -10 29 q -34 90 -31 69 q -35 124 -37 110 l -32 138 l 6 319 q 17 338 7 331 q 38 346 26 346 l 201 346 q 228 333 218 346 q 235 306 238 321 l 229 281 l 222 249 l 214 207 l 214 207 l 413 207 q 440 217 428 207 q 457 243 453 228 l 553 706 q 544 744 557 728 q 508 761 531 761 l 233 761 q 207 774 217 761 q 200 801 197 786 l 219 892 l 88 971 l 361 971 l 360 969 l 608 971 l 696 971 z "},"K":{"ha":944,"x_min":21,"x_max":883,"o":"m 801 554 q 775 469 792 507 q 743 412 758 432 q 710 377 728 392 q 685 359 692 363 q 675 354 679 356 l 865 47 q 865 18 874 33 q 839 3 857 3 l 703 3 q 624 47 651 3 l 496 250 l 432 354 l 343 354 l 333 314 l 311 222 l 310 214 l 263 22 q 233 0 257 0 l 53 0 q 30 11 39 0 q 24 36 21 22 l 118 472 l 146 606 l 208 893 l 74 972 l 325 972 l 417 972 q 448 958 436 972 q 456 924 460 943 l 396 646 l 388 606 l 572 606 l 583 663 l 643 940 q 657 963 646 954 q 682 972 668 972 l 840 972 q 863 965 853 972 q 878 947 874 958 q 879 925 882 936 l 814 610 l 811 594 l 801 554 z "},"L":{"ha":732,"x_min":11,"x_max":679,"o":"m 643 208 q 668 197 658 208 q 675 169 678 185 l 644 29 q 613 3 639 3 l 47 3 q 22 15 32 3 q 15 42 13 26 l 140 619 l 144 640 l 171 763 l 200 900 l 78 972 l 239 972 q 242 972 240 972 l 417 972 q 442 960 432 972 q 449 933 451 949 l 421 807 l 369 564 l 301 250 l 293 208 l 643 208 z "},"M":{"ha":1113,"x_min":15,"x_max":1167,"o":"m 1113 972 q 1151 954 1136 972 q 1161 913 1167 936 l 974 39 q 957 11 971 22 q 925 0 943 0 l 786 0 q 747 18 763 0 q 738 60 732 36 l 813 407 l 821 450 l 825 465 l 813 450 l 649 247 q 596 222 628 222 l 485 222 q 444 235 463 222 q 421 271 426 249 l 376 418 l 354 492 l 339 418 l 257 39 q 240 11 254 22 q 210 0 226 0 l 69 0 q 31 18 46 0 q 21 60 17 36 l 201 899 l 76 972 l 261 972 l 421 972 q 442 968 432 972 q 458 956 451 964 q 468 938 465 947 l 585 543 l 918 954 q 957 972 933 972 l 1113 972 z "},"N":{"ha":838,"x_min":25,"x_max":881,"o":"m 768 972 q 858 942 836 972 q 871 868 879 913 l 711 54 q 708 49 710 53 q 702 37 707 46 q 690 21 697 28 q 671 8 683 14 q 643 1 658 1 l 439 1 q 433 2 436 1 q 422 8 431 3 q 405 19 413 13 q 390 43 397 26 q 378 82 382 60 q 363 162 372 107 q 344 267 353 217 q 327 360 335 318 q 318 406 319 401 l 318 406 l 318 406 l 310 365 l 246 43 q 244 39 246 42 q 237 28 243 36 q 222 15 231 21 q 197 5 214 10 q 157 0 179 0 l 86 0 q 79 1 83 0 q 63 7 75 1 q 45 22 51 13 q 33 47 39 31 q 33 85 26 63 l 194 901 l 75 972 l 282 972 q 296 972 289 972 l 361 972 q 365 972 363 972 q 376 970 368 972 q 392 965 385 968 q 409 953 399 961 q 428 933 419 944 q 444 901 436 921 q 456 857 451 881 q 478 736 461 829 q 510 555 494 643 q 536 415 526 467 q 540 390 538 413 l 549 350 l 556 390 l 660 914 q 661 921 660 917 q 669 935 663 925 q 687 952 676 944 q 719 966 697 960 q 768 972 740 972 z "},"O":{"ha":842,"x_min":31,"x_max":886,"o":"m 743 972 q 760 971 750 972 q 797 961 771 969 q 843 940 824 953 q 874 900 863 926 q 878 839 886 874 l 729 142 q 706 81 722 107 q 671 39 690 54 q 631 14 651 24 q 590 1 610 4 q 553 -4 569 -3 q 528 -4 538 -6 l 518 -3 l 172 -3 q 92 11 124 -3 q 49 44 60 25 q 34 84 38 64 q 33 118 31 104 l 36 132 l 122 535 l 124 536 l 144 639 l 174 774 l 186 831 q 188 836 186 832 l 201 897 l 76 972 l 743 972 m 503 208 l 621 763 l 435 763 l 415 763 l 400 700 l 293 208 l 503 208 z "},"P":{"ha":797,"x_min":22,"x_max":863,"o":"m 738 972 q 742 972 739 972 q 755 972 744 972 q 774 969 765 971 q 795 963 782 967 q 817 952 808 958 q 837 935 826 946 q 851 911 847 925 q 858 878 856 897 q 856 836 861 860 q 854 831 854 835 l 853 825 l 849 804 q 844 785 849 803 l 843 778 q 843 774 843 776 q 843 772 843 772 l 836 738 q 833 724 833 729 l 831 711 q 830 707 831 710 q 829 703 829 704 l 825 682 q 822 672 824 679 l 821 663 q 819 655 819 660 q 817 647 818 650 q 816 640 817 644 q 815 632 815 635 l 814 629 q 813 624 814 629 q 811 617 813 619 l 808 597 q 807 590 807 594 l 804 581 q 803 576 804 579 q 803 571 803 572 l 803 568 q 800 560 801 564 l 800 554 q 799 547 799 551 l 796 535 q 794 529 794 531 l 794 526 l 793 525 l 793 524 l 793 522 q 791 514 792 519 q 785 494 790 508 q 772 467 779 481 q 750 438 764 454 q 719 410 736 422 q 674 391 701 399 q 615 383 647 383 l 339 383 l 315 271 l 265 38 q 249 13 261 22 q 222 3 238 3 l 69 3 q 36 19 49 3 q 28 56 24 35 l 125 508 l 150 625 l 154 640 l 156 650 l 181 763 l 207 892 l 75 972 l 246 972 q 250 974 249 974 q 255 973 251 974 q 260 972 258 972 l 738 972 m 611 725 q 603 752 614 740 q 578 764 593 764 l 421 764 l 394 640 l 568 640 q 590 649 581 640 q 601 668 599 657 l 611 725 z "},"Q":{"ha":967,"x_min":33,"x_max":881,"o":"m 861 182 q 881 143 881 168 l 881 -31 q 855 -73 881 -60 q 806 -69 829 -86 l 663 36 q 623 13 644 22 q 583 0 601 3 q 549 -4 565 -3 q 524 -4 533 -6 l 515 -3 l 174 -3 q 94 11 125 -3 q 51 45 63 25 q 37 85 40 65 q 36 118 33 104 l 39 132 l 125 535 l 125 536 l 146 639 l 175 774 l 188 831 q 190 842 188 835 l 203 897 l 76 972 l 738 972 q 742 972 739 972 q 757 969 746 971 q 778 965 768 968 q 802 958 788 963 q 826 946 817 953 q 848 928 836 939 q 865 906 860 918 q 874 876 869 893 q 871 839 878 858 l 749 264 l 768 250 l 861 182 m 543 414 l 617 764 l 413 763 l 404 722 l 358 514 l 301 250 l 293 208 l 426 208 l 382 240 q 356 279 363 256 q 360 325 350 303 l 399 415 q 443 455 411 446 q 501 444 475 464 l 543 414 z "},"R":{"ha":835,"x_min":21,"x_max":875,"o":"m 746 972 q 763 973 753 974 q 797 965 772 972 q 838 946 821 958 q 865 905 854 933 q 867 836 875 876 q 864 825 865 833 l 860 804 q 856 785 857 789 l 854 778 q 853 772 854 776 l 846 738 q 843 724 846 732 l 842 711 q 839 703 840 704 l 835 682 q 833 672 835 679 l 832 663 q 828 648 831 658 q 825 632 826 638 l 825 629 q 822 617 825 629 l 818 597 q 817 594 818 596 q 817 590 817 592 l 815 581 q 813 571 814 574 l 813 568 q 811 560 811 564 l 810 554 q 808 551 810 554 l 808 547 l 806 535 q 804 529 806 532 q 804 525 804 526 l 804 524 l 803 522 q 750 428 794 468 q 769 357 779 397 l 700 35 q 686 12 697 21 q 660 3 675 3 l 499 3 q 467 18 479 3 q 458 51 454 33 l 532 383 q 533 383 532 383 l 364 383 l 343 383 l 315 260 l 267 38 q 252 13 264 22 q 225 3 240 3 l 69 3 q 35 19 49 3 q 26 56 22 35 l 125 508 l 151 625 l 154 640 l 157 650 l 181 763 l 208 892 l 74 972 l 247 972 q 256 973 250 974 q 263 972 261 972 l 746 972 m 614 721 q 608 751 618 738 q 579 764 597 764 l 425 764 l 399 640 l 565 640 q 600 668 593 640 l 614 721 z "},"S":{"ha":842,"x_min":33,"x_max":885,"o":"m 756 972 q 828 958 799 972 q 867 924 857 944 q 881 883 878 903 q 883 849 885 863 q 881 835 882 835 l 872 793 q 865 777 871 785 q 851 765 860 769 q 833 761 843 761 l 374 761 l 350 639 l 667 639 q 685 638 674 639 q 726 629 697 638 q 775 606 756 621 q 806 557 794 590 q 808 476 818 524 l 733 136 q 731 122 733 131 q 717 89 729 113 q 688 47 706 65 q 634 15 669 29 q 554 0 599 0 l 167 0 q 151 1 161 0 q 116 9 140 1 q 74 30 92 17 q 45 72 56 43 q 42 139 35 100 l 46 158 q 67 194 50 181 q 106 208 83 208 l 508 208 l 531 313 l 546 381 l 246 381 q 172 395 201 381 q 133 430 143 410 q 119 470 124 450 q 118 506 115 490 l 119 519 l 140 617 l 185 835 q 189 850 186 842 l 199 897 l 74 972 l 367 972 l 369 972 l 756 972 z "},"T":{"ha":790,"x_min":71,"x_max":897,"o":"m 661 764 l 674 764 l 661 764 m 864 972 q 881 967 874 972 q 892 954 889 963 q 894 936 896 946 l 863 788 q 833 764 858 764 l 656 764 l 661 764 q 656 764 658 764 l 640 706 l 601 524 l 494 26 q 465 3 489 3 l 286 3 q 263 14 272 3 q 257 39 254 25 l 372 578 l 375 592 l 385 640 l 404 728 q 398 753 407 742 q 375 764 389 764 l 210 764 q 187 776 196 764 q 181 801 178 788 l 200 894 l 72 971 l 229 971 q 242 972 236 972 l 864 972 z "},"U":{"ha":828,"x_min":33,"x_max":886,"o":"m 846 972 q 875 958 864 972 q 882 928 886 944 l 714 144 q 680 69 704 100 q 627 24 656 38 q 572 5 599 11 q 528 -1 546 -1 l 510 0 l 175 0 q 94 14 126 0 q 51 49 61 28 q 37 90 40 69 q 38 124 33 110 l 40 139 l 203 896 l 75 972 l 414 972 q 443 958 432 972 q 450 928 454 944 l 328 358 l 304 249 l 296 207 l 325 207 l 486 207 l 644 943 q 651 958 646 951 q 665 969 657 965 q 681 972 672 972 l 846 972 z "},"V":{"ha":794,"x_min":67,"x_max":846,"o":"m 763 972 q 822 944 799 972 q 838 881 844 915 l 822 807 l 769 565 l 661 60 q 617 10 653 22 q 658 4 611 7 q 664 3 660 4 q 669 3 669 3 l 586 3 l 411 3 l 411 1 l 268 3 q 267 3 267 3 l 263 3 q 250 11 254 3 l 249 11 l 135 238 l 99 311 q 81 440 67 374 l 178 906 l 76 972 l 363 972 l 383 972 q 410 960 400 972 q 419 932 421 947 q 413 897 415 907 l 313 429 q 313 424 311 426 l 397 278 l 311 278 l 388 238 l 463 238 l 490 238 l 453 238 q 460 243 458 238 l 540 619 l 543 632 l 544 642 l 571 764 l 604 918 q 629 957 610 942 q 672 972 649 972 l 763 972 z "},"W":{"ha":1113,"x_min":17,"x_max":1168,"o":"m 1114 972 q 1152 954 1138 972 q 1163 913 1167 936 l 975 43 q 958 14 971 25 q 926 3 944 3 l 763 3 q 733 13 746 3 q 715 39 719 24 l 599 431 l 265 22 q 226 3 250 3 l 71 3 q 32 22 47 3 q 22 63 17 40 l 201 899 l 76 972 l 397 972 q 436 954 421 972 q 446 913 451 936 l 371 567 l 368 550 l 358 510 l 358 510 l 358 510 l 440 610 l 535 726 q 588 751 556 751 l 699 751 q 739 738 721 751 q 763 703 757 725 l 807 556 l 817 524 l 829 482 l 847 569 l 925 933 q 943 962 929 951 q 974 972 957 972 l 1114 972 z "},"X":{"ha":821,"x_min":26,"x_max":876,"o":"m 822 972 q 854 964 842 972 q 870 944 867 956 q 874 919 874 932 q 874 899 875 907 q 872 890 872 892 l 815 624 q 772 568 807 586 l 613 490 l 714 440 q 751 403 739 428 q 757 351 763 378 l 706 113 q 689 62 699 83 q 669 30 679 40 q 649 14 658 19 q 633 7 639 8 l 628 7 l 542 7 q 496 15 514 7 q 472 36 478 24 q 463 61 465 49 q 461 82 460 74 l 461 90 l 514 336 l 438 376 l 315 294 q 269 90 306 235 q 241 21 257 43 q 215 0 225 -1 l 204 3 l 81 3 q 49 11 61 3 q 33 31 36 19 q 28 56 29 43 q 29 76 28 68 l 31 85 l 88 351 q 131 407 96 390 l 290 486 l 189 536 q 152 572 164 547 q 146 624 140 597 l 207 893 l 78 969 l 261 969 l 275 969 l 361 969 q 407 961 389 969 q 431 940 425 953 q 440 915 438 928 q 442 894 443 903 l 442 885 l 389 639 l 464 561 l 588 681 q 621 836 590 689 q 642 907 631 878 q 662 948 653 936 q 680 967 671 960 q 693 972 689 974 l 699 972 l 822 972 z "},"Y":{"ha":764,"x_min":74,"x_max":843,"o":"m 807 969 q 833 956 824 969 q 839 926 843 943 l 756 504 q 703 444 746 457 l 494 376 l 428 38 q 414 13 425 22 q 388 3 403 3 l 249 3 q 217 19 229 3 q 208 56 206 35 l 274 389 l 110 463 q 83 490 92 471 q 79 531 75 510 l 133 807 l 157 925 l 78 972 l 228 972 q 229 972 229 972 l 346 972 q 360 968 353 972 q 374 945 367 964 q 372 890 382 926 l 372 889 l 372 889 l 371 885 l 371 885 l 371 881 q 371 879 371 881 l 369 874 q 368 869 368 871 q 368 868 368 868 l 368 865 q 367 858 367 861 l 367 860 l 365 857 l 365 857 q 365 856 365 857 q 365 855 365 856 q 365 853 365 854 l 365 851 l 322 639 l 403 568 l 560 639 l 610 893 l 618 935 q 633 960 621 950 q 661 969 646 969 l 807 969 m 368 868 l 368 869 l 368 868 z "},"Z":{"ha":782,"x_min":13,"x_max":865,"o":"m 825 971 q 854 954 843 971 q 860 918 865 938 l 826 761 l 447 326 l 443 322 l 379 247 l 344 207 l 369 207 l 654 207 q 685 190 674 207 q 692 151 697 172 l 665 33 q 652 9 663 18 q 629 0 642 0 l 64 0 q 27 21 42 0 q 18 68 13 42 l 49 207 l 532 761 l 213 761 q 187 776 197 761 q 181 810 176 792 l 200 894 l 75 969 l 236 969 q 243 971 239 971 l 825 971 z "},"[":{"ha":738,"x_min":-57,"x_max":672,"o":"m 624 989 q 658 972 644 989 q 667 932 672 954 l 642 838 q 626 813 638 822 q 599 803 614 803 l 375 803 l 228 183 l 431 183 q 467 167 453 183 q 475 128 481 150 l 451 35 q 436 10 449 19 q 408 0 424 0 l -7 0 q -43 17 -29 0 q -51 57 -57 35 l 36 389 l 132 786 l 150 865 l 151 865 l 174 954 q 189 979 176 969 q 217 989 201 989 l 624 989 z "},"\\":{"ha":656,"x_min":64,"x_max":593,"o":"m 583 176 q 580 137 592 156 q 546 118 568 118 l 419 118 q 382 142 393 118 l 201 535 l 100 754 l 74 814 q 76 852 64 833 q 110 871 88 871 l 238 871 q 275 847 264 871 l 308 774 l 358 664 l 368 643 l 583 176 z "},"]":{"ha":732,"x_min":64,"x_max":792,"o":"m 738 989 q 776 969 761 989 q 785 926 792 950 l 700 600 l 604 203 l 585 124 l 564 38 q 547 10 560 21 q 515 0 533 0 l 119 0 q 80 19 94 0 q 71 63 65 39 l 93 149 q 103 168 96 160 q 120 181 110 176 q 142 186 131 186 l 361 186 l 508 806 l 311 806 q 272 824 286 806 q 263 867 257 843 l 283 951 q 301 978 288 968 q 332 989 314 989 l 738 989 z "},"^":{"ha":583,"x_min":65,"x_max":517,"o":"m 514 660 q 506 635 515 646 q 483 625 497 625 l 357 625 q 336 633 344 625 q 326 653 328 642 l 311 781 l 256 644 q 228 625 247 625 l 100 625 q 74 640 83 625 q 72 669 65 654 l 147 839 q 197 871 163 871 l 442 871 q 478 857 463 871 q 496 822 494 843 l 514 660 z "},"_":{"ha":703,"x_min":-74,"x_max":597,"o":"m 563 122 q 587 110 578 122 q 593 85 596 99 l 579 31 q 540 0 572 3 l -39 0 q -65 13 -56 0 q -68 42 -74 26 l -46 101 q -18 121 -39 121 l 563 122 z "},"`":{"ha":175,"x_min":81,"x_max":232,"o":"m 211 874 q 226 865 221 874 q 225 847 231 856 l 156 733 q 140 725 150 725 l 100 725 q 86 731 92 725 q 83 746 81 738 l 110 871 l 111 874 l 211 874 z "},"a":{"ha":844,"x_min":-106,"x_max":756,"o":"m 650 960 q 721 935 686 960 q 756 876 756 910 l 756 49 q 728 6 756 25 q 672 -12 700 -12 l 533 -12 q 490 6 508 -12 q 472 49 472 24 l 472 163 l 225 163 l 164 25 q 107 -12 147 -12 l -33 -12 q -86 17 -68 -12 q -89 76 -104 46 l 188 626 l 332 914 q 408 960 356 960 l 650 960 m 479 350 l 488 690 q 478 702 488 700 q 467 696 469 704 l 325 410 l 194 410 l 300 350 l 479 350 z "},"b":{"ha":757,"x_min":-60,"x_max":794,"o":"m 650 958 q 667 958 657 958 q 705 949 678 957 q 751 928 732 942 q 782 887 771 915 q 785 821 793 858 l 729 569 q 697 509 721 533 q 653 479 674 485 l 633 472 q 685 445 668 472 q 701 390 701 418 l 700 363 l 650 140 q 614 58 640 92 q 558 12 588 25 q 499 -8 528 -1 q 451 -14 471 -14 l 433 -12 l -14 -12 q -47 3 -33 -12 q -56 40 -60 19 l 64 575 l 106 758 l 143 925 q 158 949 146 940 q 183 958 169 958 l 650 958 m 417 290 q 413 328 421 310 q 390 357 406 346 q 354 368 374 368 l 269 368 l 239 236 l 150 236 l 229 196 l 229 194 l 344 194 q 372 201 358 194 q 394 219 385 208 q 406 244 403 231 l 417 290 m 506 690 q 497 731 511 713 q 458 750 482 750 l 360 750 l 340 668 l 246 668 l 331 625 l 451 625 q 473 630 463 625 q 490 644 483 635 q 500 664 497 653 l 506 690 z "},"c":{"ha":763,"x_min":-51,"x_max":818,"o":"m 669 960 q 781 924 744 960 q 811 857 818 888 q 810 819 804 826 l 768 644 q 762 630 767 636 q 749 620 757 624 q 733 617 742 617 l 547 617 q 519 630 531 617 q 513 660 508 643 l 529 731 l 528 731 l 529 733 l 282 733 l 351 689 l 283 408 l 244 244 l 156 244 l 235 193 l 404 193 l 431 304 q 443 324 433 317 q 465 332 453 332 l 651 332 q 680 319 669 332 q 688 289 690 306 l 649 124 q 647 116 649 121 q 640 97 646 111 q 625 69 633 82 q 601 41 617 57 q 564 14 585 25 q 513 -6 543 3 q 444 -14 482 -14 l 99 -14 q 81 -12 92 -14 q 42 -3 69 -11 q -6 17 14 4 q -38 58 -26 31 q -42 124 -50 86 l 51 532 l 71 617 l 83 665 l 118 819 q 140 876 125 851 q 174 915 156 901 q 214 940 193 929 q 254 953 235 950 q 289 958 274 957 q 314 960 304 960 l 324 960 l 669 960 z "},"d":{"ha":769,"x_min":-56,"x_max":807,"o":"m 669 961 q 747 947 717 961 q 789 915 778 933 q 803 874 800 897 q 804 840 806 850 q 801 822 803 829 q 799 814 801 822 q 799 813 799 813 l 651 129 q 651 128 651 128 q 648 109 650 119 q 633 76 646 99 q 601 35 621 53 q 544 5 582 18 q 458 -8 507 -8 l -1 -8 q -40 10 -25 -8 q -50 53 -56 29 l 139 922 q 156 950 142 939 q 188 961 169 961 l 669 961 m 525 690 q 522 721 528 706 q 504 744 517 736 q 475 753 492 753 l 258 753 l 333 713 l 315 631 l 315 628 l 233 239 l 149 239 l 224 197 l 349 197 q 403 217 379 197 q 433 267 426 236 l 525 690 z "},"e":{"ha":753,"x_min":-40,"x_max":835,"o":"m 793 961 q 822 947 811 961 q 831 917 833 933 l 801 782 q 789 761 799 769 q 765 753 779 753 l 357 753 l 250 753 l 328 713 l 310 629 l 599 629 q 626 615 615 629 q 635 585 638 601 l 600 399 q 587 378 597 386 q 563 369 576 369 l 274 369 l 167 369 l 243 329 l 214 197 l 629 197 q 658 183 647 197 q 667 153 669 169 l 638 21 q 625 -1 635 7 q 601 -8 615 -8 l 153 -8 q 14 58 68 -8 q -22 207 -40 124 l 64 615 l 101 792 q 177 914 118 867 q 311 961 236 961 l 793 961 z "},"f":{"ha":707,"x_min":-60,"x_max":804,"o":"m 756 961 q 790 945 776 961 q 799 908 804 929 l 774 788 q 758 763 771 772 q 731 753 746 753 l 354 753 l 247 753 l 325 713 l 307 629 l 572 629 q 597 622 586 629 q 613 601 608 614 q 615 575 618 589 l 579 406 q 564 381 576 390 q 536 371 551 371 l 275 371 l 168 371 l 246 329 l 179 18 q 167 -1 176 6 q 146 -8 158 -8 l -24 -8 q -49 4 -39 -8 q -57 32 -60 17 l 101 769 q 147 869 113 825 q 232 937 182 913 q 339 961 282 961 l 756 961 z "},"g":{"ha":775,"x_min":-46,"x_max":813,"o":"m 761 583 l 518 583 l 549 736 l 442 736 l 257 736 l 333 696 l 308 583 l 235 257 q 233 240 233 249 l 146 240 l 224 200 l 275 200 q 276 200 276 200 l 432 200 l 454 306 l 397 306 q 365 322 378 306 q 357 360 353 339 l 383 479 q 389 492 385 486 q 399 503 393 499 q 410 510 404 508 q 424 513 417 513 l 692 513 q 724 496 713 513 q 732 460 736 479 l 660 132 q 656 124 658 129 q 642 105 653 119 q 620 78 632 90 q 588 49 608 65 q 544 22 567 33 q 489 3 521 11 q 421 -4 457 -4 l 97 -4 q 79 -4 90 -4 q 42 3 68 -4 q -3 22 15 10 q -33 63 -22 35 q -36 132 -44 92 l 69 619 l 71 624 l 115 826 q 147 898 124 868 q 197 940 171 928 q 249 959 224 953 q 290 965 274 965 l 307 965 l 631 965 q 715 951 679 965 q 769 916 751 936 q 797 876 786 896 q 810 842 807 856 l 811 826 l 761 583 z "},"h":{"ha":760,"x_min":-53,"x_max":811,"o":"m 774 968 q 801 954 790 968 q 807 924 811 940 l 621 26 q 608 6 618 14 q 586 -1 599 -1 l 424 -1 q 397 12 407 -1 q 389 42 386 25 l 450 332 q 444 363 454 349 q 417 376 433 376 l 289 376 l 186 376 l 247 342 l 246 333 l 182 26 q 169 6 179 14 q 147 -1 160 -1 l -14 -1 q -41 12 -31 -1 q -49 42 -51 25 l 60 561 l 65 590 l 75 636 l 139 939 q 145 954 140 947 q 158 965 150 961 q 172 968 165 968 l 335 968 q 362 954 351 968 q 368 924 372 940 l 325 719 q 331 642 314 658 l 340 636 l 347 636 q 351 636 350 636 l 485 636 q 507 644 497 636 q 519 664 517 651 l 576 939 q 589 960 579 951 q 611 968 599 968 l 774 968 z "},"i":{"ha":328,"x_min":-51,"x_max":378,"o":"m 301 968 q 356 942 335 968 q 369 883 376 917 l 353 801 l 300 560 l 192 53 q 167 14 186 29 q 124 -1 147 -1 l 25 -1 q -29 24 -8 -1 q -43 82 -50 50 l 71 614 l 76 636 l 101 758 l 135 913 q 160 953 140 938 q 203 968 179 968 l 301 968 z "},"j":{"ha":756,"x_min":-72,"x_max":790,"o":"m 671 971 q 789 871 783 971 q 783 822 790 844 l 642 138 q 611 66 633 96 q 564 24 589 36 q 515 6 539 13 q 475 1 490 0 l 458 1 l 61 1 q -13 16 17 1 q -53 50 -43 31 q -67 90 -64 69 q -68 124 -71 110 l -65 138 l -28 319 q -17 338 -26 331 q 4 346 -7 346 l 168 346 q 194 333 185 346 q 201 306 204 321 l 189 249 l 103 249 l 181 208 l 181 208 l 388 208 q 415 218 403 208 q 432 244 428 228 l 528 707 q 525 733 531 719 q 508 753 519 746 q 483 761 497 761 l 200 761 q 174 774 183 761 q 167 801 164 786 l 197 943 q 209 962 200 954 q 229 969 218 969 l 582 971 l 671 971 z "},"k":{"ha":872,"x_min":-53,"x_max":811,"o":"m 731 553 q 619 360 701 408 l 607 354 l 792 49 q 792 18 800 33 q 767 3 783 3 l 635 3 q 557 47 585 3 l 433 250 l 372 354 l 176 354 l 250 313 l 229 222 l 182 24 q 154 0 176 0 l -22 0 q -44 11 -35 0 q -50 36 -53 22 l 42 472 l 69 604 l 139 940 q 152 962 142 953 q 176 971 163 971 l 332 971 q 362 956 350 971 q 369 922 374 942 l 311 644 l 303 604 l 507 604 l 519 661 l 575 939 q 590 962 579 953 q 614 971 600 971 l 768 971 q 798 956 786 971 q 806 924 810 942 l 742 610 l 739 594 l 731 553 z "},"l":{"ha":665,"x_min":-56,"x_max":611,"o":"m 576 208 q 601 197 592 208 q 608 169 611 185 l 578 28 q 546 3 572 3 l -19 3 q -44 15 -35 3 q -51 42 -54 26 l 72 618 l 78 640 l 104 763 l 143 947 q 175 972 149 972 l 350 972 q 375 960 365 972 q 382 933 385 949 l 354 807 l 301 564 l 235 249 l 149 249 l 225 208 l 576 208 z "},"m":{"ha":1044,"x_min":-54,"x_max":1097,"o":"m 1043 969 q 1082 951 1067 969 q 1092 910 1097 933 l 904 39 q 887 11 900 22 q 856 0 874 0 l 717 0 q 678 18 693 0 q 668 60 663 36 l 742 407 l 751 449 l 761 490 l 665 490 l 743 449 l 578 246 q 526 221 558 221 l 415 221 q 375 235 393 221 q 351 269 357 249 l 307 418 l 285 490 l 285 489 l 200 489 l 276 449 l 188 39 q 179 19 186 28 q 162 5 172 10 q 140 0 151 0 l 0 0 q -39 18 -24 0 q -49 60 -54 36 l 139 931 q 156 958 143 947 q 188 969 169 969 l 351 969 q 381 960 368 969 q 399 935 394 950 l 515 542 l 849 951 q 888 969 864 969 l 1043 969 z "},"n":{"ha":769,"x_min":-44,"x_max":811,"o":"m 699 972 q 788 942 765 972 q 801 868 810 913 l 640 54 q 639 48 640 51 q 633 35 638 44 q 621 19 628 26 q 601 7 614 13 q 574 1 589 1 l 369 1 q 364 2 367 1 q 352 7 361 3 q 335 19 343 11 q 320 42 328 26 q 308 81 313 58 q 288 192 301 114 q 262 335 274 271 q 249 404 250 400 l 249 406 l 249 406 l 171 406 l 240 365 l 176 43 q 175 38 176 42 q 167 28 174 35 q 153 15 161 21 q 127 3 144 8 q 88 -1 110 -1 l 17 -1 q 10 1 14 0 q -6 6 6 1 q -24 20 -18 11 q -37 45 -31 29 q -37 85 -44 61 l 128 914 q 128 917 128 915 q 131 926 129 919 q 138 938 133 932 q 149 949 142 943 q 166 960 156 956 q 192 969 176 965 q 226 972 207 972 l 292 972 q 296 972 293 972 q 306 970 299 972 q 322 964 314 968 q 340 951 329 960 q 358 931 350 943 q 374 900 365 919 q 386 857 382 881 q 427 628 393 813 q 471 389 461 444 l 408 389 l 478 349 l 486 389 l 590 914 q 592 920 590 917 q 600 934 593 924 q 617 952 607 944 q 649 966 628 960 q 699 972 671 972 z "},"o":{"ha":761,"x_min":-43,"x_max":808,"o":"m 658 972 q 677 971 665 972 q 716 961 689 969 q 763 940 743 953 q 796 900 783 926 q 800 839 808 874 l 644 147 q 607 68 633 100 q 550 24 581 36 q 490 6 519 11 q 442 1 461 0 l 422 3 l 104 3 q 39 10 67 3 q -4 30 11 18 q -28 56 -19 42 q -40 85 -37 71 q -42 110 -42 99 q -40 131 -42 122 l -39 138 l 51 538 l 53 539 l 75 642 l 106 775 l 118 832 q 123 847 119 838 q 142 880 126 856 q 179 923 157 904 q 244 957 201 942 q 340 972 286 972 l 658 972 m 414 214 l 538 764 l 379 764 l 267 764 l 347 724 l 349 724 l 300 517 l 240 254 l 150 254 l 231 214 l 414 214 z "},"p":{"ha":728,"x_min":-54,"x_max":793,"o":"m 665 974 q 682 974 672 974 q 715 967 692 974 q 756 947 739 960 q 783 906 772 935 q 785 838 793 876 q 783 826 783 832 l 779 806 q 776 794 778 801 q 775 785 775 788 l 774 778 q 772 772 772 776 l 765 738 q 763 724 763 726 l 760 711 q 758 704 758 707 l 754 682 q 753 678 754 681 q 753 674 753 675 l 750 664 q 744 632 746 642 l 743 629 q 742 617 742 619 l 738 599 q 736 590 736 596 l 733 581 q 732 571 732 575 l 732 568 q 729 560 731 565 l 729 554 q 728 547 728 550 l 725 535 q 724 531 725 533 q 724 529 724 529 q 723 528 724 529 q 722 525 722 526 l 722 524 l 722 522 q 719 507 721 517 q 704 474 717 497 q 674 431 692 450 q 622 398 657 413 q 543 383 588 383 l 265 383 l 240 271 l 190 36 q 186 24 189 29 q 179 15 183 19 q 170 8 175 11 q 160 3 165 6 q 147 1 154 1 l -7 1 q -40 17 -28 1 q -49 54 -53 33 l 50 508 l 75 625 l 78 642 l 81 651 l 104 764 l 143 940 q 158 964 146 954 q 185 974 169 974 l 665 974 m 554 719 q 548 751 558 738 q 518 765 538 765 l 260 765 l 338 725 l 319 642 l 504 642 q 539 667 532 642 l 554 719 z "},"q":{"ha":890,"x_min":-44,"x_max":804,"o":"m 783 186 q 803 147 803 172 l 803 -25 q 776 -67 803 -54 q 725 -64 749 -81 l 572 40 q 504 8 543 18 q 440 0 465 -1 l 417 1 l 104 1 q 21 15 54 1 q -24 49 -12 29 q -40 90 -36 69 q -40 124 -43 110 l -37 138 l 53 539 l 53 540 l 76 643 l 107 776 l 119 833 q 124 849 121 839 q 142 883 126 858 q 180 926 158 907 q 244 960 201 944 q 340 975 288 975 l 653 975 q 671 974 660 975 q 710 963 682 972 q 757 942 738 954 q 789 903 776 929 q 793 842 801 876 l 664 268 l 685 254 l 783 186 m 474 418 l 551 767 l 358 767 l 268 767 l 349 725 l 300 518 l 240 254 l 231 214 l 350 214 l 303 244 q 275 283 282 260 q 279 329 268 307 l 321 419 q 368 459 335 450 q 429 449 401 468 l 474 418 z "},"r":{"ha":760,"x_min":-56,"x_max":799,"o":"m 669 971 q 686 971 676 971 q 719 964 696 971 q 760 944 743 957 q 788 903 778 932 q 790 835 797 875 q 788 824 789 832 l 783 803 q 782 793 783 800 q 779 783 781 786 l 778 776 l 776 771 l 769 736 q 769 728 769 733 q 767 722 768 724 l 765 710 q 763 701 764 704 l 758 681 q 757 671 758 678 l 756 661 q 753 651 754 657 q 751 640 751 646 q 749 631 750 635 l 749 628 q 746 615 746 619 l 742 596 q 740 589 740 590 l 739 579 q 737 574 738 576 q 736 569 736 571 l 736 567 q 735 563 736 565 q 735 558 735 560 l 733 553 q 732 546 732 549 l 729 533 q 728 528 729 532 l 728 526 l 728 524 l 726 522 l 726 521 q 674 426 718 467 q 693 356 703 396 l 624 33 q 610 10 621 19 q 583 1 599 1 l 422 1 q 390 17 403 1 q 382 50 378 32 l 454 382 q 476 382 463 382 l 288 382 l 179 382 l 257 342 l 242 269 l 190 36 q 176 11 188 21 q 147 1 164 1 l -8 1 q -42 17 -29 1 q -50 54 -54 33 l 49 507 l 74 624 l 78 639 l 79 649 l 104 761 l 143 938 q 158 962 146 953 q 185 971 169 971 l 669 971 m 536 711 q 527 747 540 731 q 493 763 514 763 l 261 763 l 339 722 l 321 639 l 483 639 q 509 648 497 639 q 525 671 521 657 l 536 711 z "},"s":{"ha":760,"x_min":-49,"x_max":803,"o":"m 674 972 q 745 958 717 972 q 785 925 774 943 q 799 883 796 907 q 801 850 803 860 q 799 835 800 840 l 790 793 q 783 777 789 785 q 769 765 778 769 q 751 761 761 761 l 292 761 l 207 761 l 283 721 l 268 639 l 585 639 q 603 638 592 639 q 644 629 615 638 q 692 606 672 621 q 724 558 713 592 q 726 478 736 524 l 651 138 q 649 123 651 132 q 635 90 647 114 q 605 49 622 67 q 552 16 588 31 q 471 1 517 1 l 85 1 q 69 3 79 1 q 34 12 58 4 q -8 32 10 19 q -37 74 -26 44 q -40 140 -47 103 l -36 160 q -15 197 -32 182 q 24 211 1 211 l 426 211 l 456 342 l 532 382 l 463 382 l 386 382 l 164 382 q 108 390 132 382 q 70 410 83 397 q 49 437 57 422 q 38 466 40 451 q 35 493 36 481 q 36 513 35 506 l 38 521 l 58 618 l 103 835 q 133 903 111 874 q 181 944 156 932 q 230 964 206 957 q 271 972 254 971 l 288 972 l 674 972 z "},"t":{"ha":665,"x_min":53,"x_max":774,"o":"m 740 972 q 763 961 754 972 q 769 936 772 950 l 738 788 q 708 764 733 764 l 531 764 l 426 764 l 515 706 l 476 522 l 369 26 q 340 1 364 1 l 161 1 q 138 13 147 1 q 132 39 129 25 l 247 576 l 250 590 l 260 639 l 279 726 q 277 744 281 736 q 266 758 274 753 q 250 764 258 764 l 85 764 q 62 775 71 764 q 56 800 53 786 l 88 949 q 117 972 92 972 l 740 972 z "},"u":{"ha":756,"x_min":-37,"x_max":813,"o":"m 772 972 q 801 958 790 972 q 808 928 813 944 l 640 147 q 606 72 631 103 q 553 27 582 40 q 499 8 525 14 q 454 1 472 1 l 436 1 l 103 1 q 40 9 67 1 q -1 29 13 17 q -24 56 -15 42 q -35 86 -33 71 q -36 113 -36 101 q -33 133 -36 125 l -32 140 l 140 943 q 153 964 143 956 q 176 972 164 972 l 342 972 q 371 958 360 972 q 378 928 382 944 l 232 250 l 146 250 l 224 210 l 253 210 l 413 210 l 571 943 q 584 964 574 956 q 607 972 594 972 l 772 972 z "},"v":{"ha":729,"x_min":0,"x_max":779,"o":"m 696 972 q 755 944 732 972 q 771 881 778 915 l 756 807 l 703 565 l 594 60 q 550 10 586 22 q 592 4 544 7 q 596 3 593 3 q 603 3 603 3 l 519 3 l 344 3 l 344 1 l 201 3 q 200 3 200 3 l 196 3 q 182 11 188 3 l 68 238 l 31 311 q 14 440 0 374 l 115 924 q 126 949 118 938 q 148 966 135 960 q 175 972 161 972 l 317 972 q 344 960 333 972 q 351 932 354 947 q 346 897 349 907 l 244 429 q 246 424 244 426 l 329 278 l 244 278 l 321 238 l 396 238 l 424 238 l 385 238 q 393 243 392 238 l 474 619 l 476 632 l 478 642 l 504 764 l 538 918 q 562 957 543 942 q 606 972 581 972 l 696 972 z "},"w":{"ha":1044,"x_min":-54,"x_max":1097,"o":"m 1043 969 q 1082 951 1067 969 q 1092 910 1097 933 l 904 39 q 887 11 900 22 q 856 0 874 0 l 692 0 q 662 10 675 0 q 644 35 649 19 l 528 428 l 194 18 q 156 0 179 0 l 0 0 q -39 18 -24 0 q -49 60 -54 36 l 139 931 q 156 958 143 947 q 188 969 169 969 l 326 969 q 365 951 350 969 q 375 910 381 933 l 301 564 l 297 547 l 211 547 l 289 507 l 288 507 l 289 507 l 289 507 l 369 607 l 465 724 q 517 749 485 749 l 628 749 q 668 735 650 749 q 692 700 686 721 l 736 551 l 746 521 l 681 521 l 757 481 l 758 479 l 776 567 l 856 931 q 872 958 858 947 q 903 969 886 969 l 1043 969 z "},"x":{"ha":743,"x_min":-53,"x_max":799,"o":"m 743 974 q 786 953 774 974 q 797 912 799 932 q 793 892 794 892 l 736 624 q 693 569 728 586 l 533 490 l 635 440 q 672 403 660 428 q 678 351 683 379 l 626 113 q 615 74 622 92 q 601 47 608 57 q 585 28 593 36 q 572 16 578 19 q 560 10 565 13 q 551 7 554 7 l 547 7 l 463 7 q 417 15 435 7 q 392 36 399 24 q 383 61 386 49 q 381 82 381 74 l 382 92 l 435 338 l 358 378 l 236 296 l 151 296 l 228 254 q 189 90 214 186 q 131 1 167 -1 q 125 3 125 3 l 1 3 q -31 11 -18 3 q -47 32 -43 19 q -51 56 -50 44 q -50 76 -51 68 l -49 85 l 8 353 q 51 407 17 390 l 211 486 l 110 536 q 73 573 85 549 q 67 625 61 597 l 129 903 q 154 954 138 938 q 183 971 171 971 l 196 969 l 282 969 q 328 961 310 969 q 352 940 346 953 q 361 915 358 928 q 363 894 364 903 l 361 886 l 318 681 l 233 681 l 310 640 l 310 639 l 385 561 l 508 682 q 542 836 511 690 q 561 907 550 878 q 582 949 572 936 q 600 967 592 961 q 614 974 608 974 l 618 974 l 743 974 z "},"y":{"ha":710,"x_min":21,"x_max":789,"o":"m 753 969 q 779 956 769 969 q 785 926 789 943 l 701 504 q 649 444 692 457 l 439 376 l 374 38 q 359 11 371 21 q 333 1 347 1 l 194 1 q 163 18 175 1 q 154 56 150 35 l 219 388 l 56 461 q 36 478 44 468 q 25 503 28 489 q 25 531 22 517 l 96 889 l 96 890 q 101 909 97 899 q 114 935 106 919 q 138 962 122 951 q 174 972 154 972 l 290 972 q 305 967 299 972 q 319 944 311 963 q 318 889 328 926 l 318 889 q 318 886 318 888 l 318 888 q 318 889 318 888 l 317 885 l 317 883 l 317 881 q 316 879 317 879 q 315 878 315 879 l 315 874 q 314 869 314 869 l 314 868 q 314 867 314 868 q 314 867 314 867 l 313 864 q 311 858 313 860 l 313 858 l 311 857 l 311 856 l 311 856 q 311 854 311 854 l 311 854 q 311 853 311 853 q 311 851 311 853 l 310 850 l 278 679 l 193 679 l 268 639 l 349 567 l 506 639 l 556 893 l 564 935 q 579 960 567 950 q 607 969 592 969 l 753 969 z "},"z":{"ha":692,"x_min":-81,"x_max":774,"o":"m 733 972 q 763 956 751 972 q 769 919 774 940 l 735 764 l 288 250 l 185 250 l 253 210 l 278 210 l 563 210 q 594 192 582 210 q 600 154 606 175 l 575 35 q 560 11 571 21 q 538 1 550 1 l -28 1 q -65 23 -50 1 q -74 69 -79 44 l -43 210 l 440 764 l 121 764 q 95 778 106 764 q 89 811 85 793 l 118 944 q 130 965 121 957 q 151 972 139 972 l 733 972 z "},"{":{"ha":597,"x_min":69,"x_max":683,"o":"m 629 989 q 667 970 653 989 q 676 929 682 951 l 656 840 q 638 813 651 824 q 608 803 625 803 l 486 803 l 426 556 l 332 493 l 397 432 l 338 183 l 436 183 q 474 165 460 183 q 483 124 489 147 l 463 38 q 445 10 458 21 q 415 0 432 0 l 213 0 q 197 0 213 3 q 158 4 181 -3 q 114 21 135 11 q 83 58 93 31 q 82 122 74 85 l 151 407 l 69 469 l 82 518 l 192 581 l 261 865 q 263 872 261 868 q 269 890 264 876 q 283 915 275 903 q 307 940 292 926 q 341 965 322 954 q 388 982 360 975 q 451 989 417 989 l 629 989 z "},"|":{"ha":414,"x_min":115,"x_max":301,"o":"m 250 989 q 285 974 271 989 q 300 939 300 960 l 300 51 q 285 15 300 31 q 250 0 271 0 l 165 0 q 130 15 144 0 q 115 51 115 31 l 115 939 q 130 974 115 960 q 165 989 144 989 l 250 989 z "},"}":{"ha":607,"x_min":-78,"x_max":538,"o":"m 456 582 l 538 519 l 525 471 l 414 408 l 346 124 q 342 111 344 119 q 326 81 339 103 q 294 44 313 60 q 238 15 275 28 q 156 1 201 1 l -35 1 q -66 17 -54 1 q -74 50 -78 32 l -47 156 q -33 178 -44 169 q -8 186 -22 186 l 119 186 l 181 433 l 274 496 l 210 557 l 269 804 l 160 804 q 128 819 140 804 q 121 854 117 835 l 146 957 q 160 979 149 971 q 185 988 171 988 l 393 988 q 410 988 394 986 q 449 984 426 990 q 492 967 472 978 q 523 931 513 957 q 524 867 533 904 l 456 582 z "},"~":{"ha":801,"x_min":64,"x_max":733,"o":"m 704 615 q 725 610 718 615 q 732 600 732 606 q 730 588 732 594 q 726 578 728 581 q 722 572 724 575 l 600 406 q 539 374 576 374 l 485 374 q 428 396 453 374 l 292 513 l 229 392 q 201 374 221 374 l 101 374 q 74 390 83 374 q 74 422 64 406 l 172 599 q 200 615 182 615 l 344 615 q 408 592 381 615 l 496 515 l 551 586 q 610 615 574 615 l 704 615 z "},"":{"ha":489,"x_min":0,"x_max":0,"o":""},"":{"ha":0,"x_min":0,"x_max":0,"o":""},"":{"ha":186,"x_min":83,"x_max":229,"o":"m 197 853 q 220 840 211 853 q 225 811 229 826 l 210 742 q 182 717 204 717 l 115 717 q 93 730 101 717 q 89 760 85 743 l 104 828 q 107 835 106 832 l 131 926 q 146 939 133 939 l 161 939 q 175 933 169 939 q 178 918 181 926 l 163 853 l 197 853 z "},"":{"ha":185,"x_min":99,"x_max":244,"o":"m 213 939 q 235 926 226 939 q 240 896 244 913 l 224 828 q 222 821 222 825 l 199 729 q 182 717 194 717 l 167 717 q 157 720 161 717 q 151 728 153 724 q 150 738 149 733 l 167 803 l 131 803 q 108 816 117 803 q 103 844 100 829 l 118 914 q 146 939 124 939 l 213 939 z "},"":{"ha":183,"x_min":-26,"x_max":118,"o":"m 86 339 q 109 326 100 339 q 114 296 118 313 l 97 228 q 96 222 97 225 l 72 131 q 56 118 69 118 l 40 118 q 27 124 32 118 q 25 139 22 131 l 40 203 l 6 203 q -18 216 -10 203 q -22 246 -26 229 l -8 314 q 19 339 -3 339 l 86 339 z "},"":{"ha":417,"x_min":67,"x_max":349,"o":"m 179 853 q 202 840 193 853 q 207 811 211 826 l 192 742 q 165 717 188 717 l 99 717 q 75 730 83 717 q 71 760 67 743 l 88 828 q 89 835 88 832 l 113 926 q 128 939 115 939 l 144 939 q 157 933 151 939 q 160 918 163 926 l 144 853 l 179 853 m 318 853 q 335 847 328 853 q 345 831 342 840 q 346 811 349 821 l 331 742 q 303 717 325 717 l 236 717 q 214 730 222 717 q 210 760 206 743 l 225 828 q 228 835 226 832 l 251 926 q 267 939 254 939 l 282 939 q 296 933 290 939 q 299 918 301 926 l 283 853 l 318 853 z "},"":{"ha":417,"x_min":67,"x_max":349,"o":"m 318 939 q 335 933 328 939 q 345 917 342 926 q 346 896 349 907 l 329 828 q 328 821 329 825 l 304 729 q 288 717 301 717 l 272 717 q 263 720 267 717 q 257 728 258 724 q 257 738 256 733 l 272 803 l 236 803 q 220 809 228 803 q 210 825 213 815 q 210 844 207 835 l 224 914 q 251 939 229 939 l 318 939 m 179 939 q 203 926 194 939 q 207 896 211 913 l 190 828 q 189 821 190 825 l 165 729 q 149 717 163 717 l 133 717 q 120 724 125 717 q 118 738 115 731 l 133 803 l 99 803 q 76 816 85 803 q 71 844 67 829 l 85 914 q 113 939 90 939 l 179 939 z "},"":{"ha":325,"x_min":-28,"x_max":261,"o":"m 85 339 q 108 326 99 339 q 113 296 117 313 l 96 228 q 94 222 96 225 l 71 131 q 54 118 68 118 l 39 118 q 26 124 31 118 q 24 139 21 131 l 39 203 l 4 203 q -19 216 -11 203 q -24 246 -28 229 l -10 314 q 18 339 -4 339 l 85 339 m 229 339 q 251 326 243 339 q 256 296 260 313 l 240 228 q 238 222 239 225 l 214 131 q 199 118 211 118 l 183 118 q 169 124 175 118 q 167 139 164 131 l 182 203 l 147 203 q 124 216 133 203 q 119 246 115 229 l 135 314 q 163 339 140 339 l 229 339 z "}}}
